<?xml version="1.0" encoding="utf-8"?>
<!-- Generator: Adobe Illustrator 27.0.0, SVG Export Plug-In . SVG Version: 6.00 Build 0)  -->
<svg version="1.1" id="Calque_1" xmlns="http://www.w3.org/2000/svg" xmlns:xlink="http://www.w3.org/1999/xlink" x="0px" y="0px"
	 viewBox="0 0 100 100" style="enable-background:new 0 0 100 100;" xml:space="preserve">
<g>
	<path d="M27.91,27.6l0.87-0.87h0.11l0.25,0.01c0.46,0,0.8-0.15,1.01-0.46s0.41-0.93,0.6-1.86l1-5.03c-0.8,0-1.45,0.22-1.95,0.65
		s-0.75,0.99-0.75,1.69l0.01,0.13l-1.14,0.55c0.11-1.22,0.58-2.1,1.41-2.65c0.83-0.55,2.11-0.83,3.84-0.83
		c1.24,0,2.13,0.13,2.66,0.4s0.79,0.71,0.79,1.34c0,0.5-0.18,1.01-0.54,1.53c-0.36,0.52-0.82,0.92-1.37,1.2
		c-0.64,0.32-1.36,0.48-2.18,0.48h-0.16l0.22-0.36h0.11c0.75,0,1.38-0.25,1.89-0.74s0.76-1.11,0.76-1.84c0-1.1-0.78-1.66-2.34-1.66
		l-0.94,4.75c-0.23,1.19-0.88,2.12-1.94,2.8l2.26,0.05c-0.19,0.27-0.38,0.55-0.57,0.82C30.5,27.67,29.2,27.64,27.91,27.6z"/>
</g>
<g>
	<path d="M28.08,27.53c0.26-0.27,0.51-0.53,0.77-0.8h0.34c0.46,0,0.8-0.13,1.02-0.4s0.4-0.79,0.56-1.56l0.6-3
		c0.11-0.57,0.32-1.07,0.62-1.51c0.11-0.17,0.29-0.42,0.6-0.69c0.2-0.17,0.59-0.5,1.15-0.6c0.49-0.09,0.88,0.01,1.34,0.12
		c0.29,0.07,0.53,0.16,0.69,0.23c-0.02,0.41-0.05,0.82-0.07,1.23h-0.38c0.01-0.1,0.02-0.19,0.02-0.25c0-0.73-0.38-1.09-1.12-1.09
		c-0.74,0-1.23,0.63-1.48,1.89l-0.54,2.7c-0.16,0.81-0.38,1.43-0.67,1.86s-0.73,0.82-1.34,1.15l3.28,0.05
		c0.94,0,1.77-0.22,2.48-0.66l-0.09,0.44c-0.55,0.48-0.96,0.79-1.23,0.93s-0.64,0.2-1.09,0.2C31.71,27.7,29.9,27.62,28.08,27.53z"/>
</g>
</svg>
